<svg width="26" height="26" viewBox="0 0 20 26" fill="none" xmlns="http://www.w3.org/2000/svg">
<path d="M10 0C4.51182 0 0.046875 4.46494 0.046875 9.95312C0.046875 11.7099 0.511016 13.437 1.38907 14.9477C1.59377 15.2999 1.82259 15.6432 2.06929 15.9679L9.56755 26H10.4324L17.9307 15.968C18.1774 15.6432 18.4062 15.3 18.6109 14.9478C19.489 13.437 19.9531 11.7099 19.9531 9.95312C19.9531 4.46494 15.4882 0 10 0ZM10 13.2539C8.17995 13.2539 6.69922 11.7732 6.69922 9.95312C6.69922 8.13307 8.17995 6.65234 10 6.65234C11.8201 6.65234 13.3008 8.13307 13.3008 9.95312C13.3008 11.7732 11.8201 13.2539 10 13.2539Z" fill="#FFB01C"/>
<path d="M10 0V6.65234C11.8201 6.65234 13.3008 8.13307 13.3008 9.95312C13.3008 11.7732 11.8201 13.2539 10 13.2539V26H10.4325L17.9308 15.968C18.1774 15.6432 18.4062 15.3 18.611 14.9478C19.489 13.437 19.9531 11.7099 19.9531 9.95312C19.9531 4.46494 15.4882 0 10 0Z" fill="#FF9400"/>
</svg>
