<svg width="30" height="30" viewBox="0 0 24 26" fill="none" xmlns="http://www.w3.org/2000/svg">
<path d="M13 0C7.51182 0 3.04688 4.46494 3.04688 9.95312C3.04688 11.7099 3.51102 13.437 4.38907 14.9477C4.59377 15.2999 4.82259 15.6432 5.06929 15.9679L12.5675 26H13.4324L20.9307 15.968C21.1774 15.6432 21.4062 15.3 21.6109 14.9478C22.489 13.437 22.9531 11.7099 22.9531 9.95312C22.9531 4.46494 18.4882 0 13 0ZM13 13.2539C11.1799 13.2539 9.69922 11.7732 9.69922 9.95312C9.69922 8.13307 11.1799 6.65234 13 6.65234C14.8201 6.65234 16.3008 8.13307 16.3008 9.95312C16.3008 11.7732 14.8201 13.2539 13 13.2539Z" fill="#FFB01C"/>
<path d="M13 0V6.65234C14.8201 6.65234 16.3008 8.13307 16.3008 9.95312C16.3008 11.7732 14.8201 13.2539 13 13.2539V26H13.4325L20.9308 15.968C21.1774 15.6432 21.4062 15.3 21.611 14.9478C22.489 13.437 22.9531 11.7099 22.9531 9.95312C22.9531 4.46494 18.4882 0 13 0Z" fill="#FF9400"/>
</svg>
