<svg width="26" height="26" viewBox="0 0 26 26" fill="none" xmlns="http://www.w3.org/2000/svg">
<g clip-path="url(#clip0_123_599)">
<path d="M25.8107 22.5925L14.0226 2.17487C13.8115 1.80925 13.4214 1.58398 12.9992 1.58398C12.577 1.58398 12.1869 1.80925 11.9758 2.17487L0.158361 22.6434C-0.0527871 23.0091 -0.0527871 23.4595 0.158361 23.8252C0.36951 24.1908 0.759561 24.416 1.18176 24.416H24.8167C24.8171 24.416 24.8178 24.416 24.8182 24.416C25.471 24.416 26 23.887 26 23.2343C26 22.9976 25.9305 22.7773 25.8107 22.5925Z" fill="#F4D371"/>
<path d="M25.8107 22.5925L14.0226 2.17487C13.8116 1.8094 13.4218 1.58434 13 1.58398V24.416H24.8167C24.8172 24.416 24.8178 24.416 24.8183 24.416C25.471 24.416 26 23.887 26 23.2343C26 22.9976 25.9304 22.7773 25.8107 22.5925Z" fill="#E9A35F"/>
<path d="M12.604 20.4848C12.3971 20.4848 12.1875 20.4305 11.9971 20.3162C11.4374 19.9803 11.256 19.2545 11.5917 18.6949L12.8813 16.5455H11.0294C10.6037 16.5455 10.2108 16.3165 10.0011 15.946C9.79128 15.5755 9.79702 15.1208 10.016 14.7558L12.3796 10.8166C12.7154 10.2571 13.441 10.0754 14.0009 10.4113C14.5606 10.7471 14.742 11.4729 14.4062 12.0326L13.1166 14.182H14.9686C15.3944 14.182 15.7873 14.411 15.997 14.7814C16.2068 15.1519 16.201 15.6067 15.982 15.9717L13.6185 19.9109C13.3969 20.2801 13.0054 20.4848 12.604 20.4848Z" fill="#5192C9"/>
<path d="M15.9971 14.7815C15.7874 14.411 15.3945 14.182 14.9687 14.182H13.1168L14.4064 12.0326C14.7423 11.4729 14.5607 10.7471 14.0012 10.4113C13.6869 10.2227 13.3204 10.1973 13 10.3103V20.4162C13.2497 20.3279 13.4717 20.1558 13.6186 19.911L15.9821 15.9718C16.2011 15.6067 16.2069 15.152 15.9971 14.7815Z" fill="#447BA7"/>
</g>
<defs>
<clipPath id="clip0_123_599">
<rect width="26" height="26" fill="white"/>
</clipPath>
</defs>
</svg>
