<svg width="26" height="26" viewBox="0 0 26 26" fill="none" xmlns="http://www.w3.org/2000/svg">
<g clip-path="url(#clip0_164_337)">
<path d="M7.61719 0.507812H2.53906V2.53906H7.61719V0.507812Z" fill="#D7D7E6"/>
<path d="M6.09375 2.53906H4.0625V4.57031H6.09375V2.53906Z" fill="#898998"/>
<path d="M18.8655 21.4297H10.6642L8.63297 19.3984H4.96875L8.63297 23.4609H19.0597C18.8859 23.0557 18.7892 22.6095 18.7892 22.1406C18.7892 21.8966 18.816 21.6589 18.8655 21.4297Z" fill="#D7D7E6"/>
<path d="M16.3516 4.57031H0.507812V19.3984H8.63281L10.6641 21.4297H23.4609V11.6797C23.4609 7.75328 20.278 4.57031 16.3516 4.57031Z" fill="#FF5A5A"/>
<path d="M23.4574 19.0677C23.051 18.8888 22.6052 18.7891 22.1407 18.7891C20.3241 18.789 18.7891 20.3265 18.7891 22.1406C18.7891 23.9444 20.3026 25.4922 22.1406 25.4922C23.9916 25.4922 25.4922 23.9917 25.4922 22.1407C25.4922 20.7842 24.6425 19.5894 23.4574 19.0677Z" fill="#898998"/>
<path d="M3.35156 19.3984H1.32031V25.4922H3.35156V19.3984Z" fill="#898998"/>
<path d="M6.60156 6.60156H2.53906V10.6641H6.60156V6.60156Z" fill="#72D8FF"/>
<path d="M12.6953 6.60156H8.63281V10.6641H12.6953V6.60156Z" fill="#72D8FF"/>
<path d="M19.8047 10.1562C19.8047 8.75398 18.6679 7.61719 17.2656 7.61719C15.8634 7.61719 14.7266 8.75398 14.7266 10.1562V12.6953H19.8047V10.1562Z" fill="#72D8FF"/>
<path d="M22.8613 21.4337C22.6754 21.2444 22.4184 21.1251 22.1407 21.125C21.6043 21.1249 21.125 21.5902 21.125 22.1406C21.125 22.7016 21.5797 23.1562 22.1406 23.1562C22.7015 23.1562 23.1562 22.7016 23.1562 22.1407C23.1562 21.8691 23.0425 21.6182 22.8613 21.4337Z" fill="#D7D7E6"/>
<path d="M6.60156 12.1875H2.53906C2.25865 12.1875 2.03125 12.4148 2.03125 12.6953C2.03125 12.9758 2.25865 13.2031 2.53906 13.2031H6.60156C6.88198 13.2031 7.10938 12.9758 7.10938 12.6953C7.10938 12.4148 6.88198 12.1875 6.60156 12.1875Z" fill="black"/>
<path d="M12.6953 12.1875H8.63281C8.3524 12.1875 8.125 12.4148 8.125 12.6953C8.125 12.9758 8.3524 13.2031 8.63281 13.2031H12.6953C12.9757 13.2031 13.2031 12.9758 13.2031 12.6953C13.2031 12.4148 12.9757 12.1875 12.6953 12.1875Z" fill="black"/>
<path d="M5.58594 14.2188C5.30557 14.2188 5.07812 14.4463 5.07812 14.7266C5.07812 15.0069 5.30557 15.2344 5.58594 15.2344C5.86625 15.2344 6.09375 15.0069 6.09375 14.7266C6.09375 14.4463 5.86625 14.2188 5.58594 14.2188Z" fill="black"/>
<path d="M3.55469 14.2188C3.27432 14.2188 3.04688 14.4463 3.04688 14.7266C3.04688 15.0069 3.27432 15.2344 3.55469 15.2344C3.835 15.2344 4.0625 15.0069 4.0625 14.7266C4.0625 14.4463 3.835 14.2188 3.55469 14.2188Z" fill="black"/>
<path d="M11.6797 14.2188C11.3993 14.2188 11.1719 14.4463 11.1719 14.7266C11.1719 15.0069 11.3993 15.2344 11.6797 15.2344C11.96 15.2344 12.1875 15.0069 12.1875 14.7266C12.1875 14.4463 11.96 14.2188 11.6797 14.2188Z" fill="black"/>
<path d="M9.64844 14.2188C9.36807 14.2188 9.14062 14.4463 9.14062 14.7266C9.14062 15.0069 9.36807 15.2344 9.64844 15.2344C9.92875 15.2344 10.1562 15.0069 10.1562 14.7266C10.1562 14.4463 9.92875 14.2188 9.64844 14.2188Z" fill="black"/>
<path d="M6.60156 6.09375H2.53906C2.25865 6.09375 2.03125 6.3211 2.03125 6.60156V10.6641C2.03125 10.9445 2.25865 11.1719 2.53906 11.1719H6.60156C6.88198 11.1719 7.10938 10.9445 7.10938 10.6641V6.60156C7.10938 6.3211 6.88198 6.09375 6.60156 6.09375ZM6.09375 10.1562H5.07812V9.24219C5.07812 8.96172 4.85073 8.73438 4.57031 8.73438C4.2899 8.73438 4.0625 8.96172 4.0625 9.24219V10.1562H3.04688V7.10938H6.09375V10.1562Z" fill="black"/>
<path d="M12.6953 6.09375H8.63281C8.3524 6.09375 8.125 6.3211 8.125 6.60156V10.6641C8.125 10.9445 8.3524 11.1719 8.63281 11.1719H12.6953C12.9757 11.1719 13.2031 10.9445 13.2031 10.6641V6.60156C13.2031 6.3211 12.9757 6.09375 12.6953 6.09375ZM12.1875 10.1562H11.1719V9.24219C11.1719 8.96172 10.9445 8.73438 10.6641 8.73438C10.3836 8.73438 10.1562 8.96172 10.1562 9.24219V10.1562H9.14062V7.10938H12.1875V10.1562Z" fill="black"/>
<path d="M20.3125 12.6953V10.1562C20.3125 8.4762 18.9457 7.10938 17.2656 7.10938C15.5856 7.10938 14.2188 8.4762 14.2188 10.1562V12.6953C14.2188 12.9758 14.4461 13.2031 14.7266 13.2031H19.8047C20.0851 13.2031 20.3125 12.9758 20.3125 12.6953ZM19.2969 12.1875H17.9086L18.2675 10.6801C18.3324 10.4073 18.1639 10.1334 17.8911 10.0685C17.6184 10.0035 17.3444 10.172 17.2794 10.4449L16.8645 12.1875H15.2344V10.1562C15.2344 9.03622 16.1456 8.125 17.2656 8.125C18.3857 8.125 19.2969 9.03622 19.2969 10.1562V12.1875Z" fill="black"/>
<path d="M23.9688 18.7426V11.6797C23.9688 7.47957 20.5517 4.0625 16.3516 4.0625H6.60156V3.04688H7.61719C7.8976 3.04688 8.125 2.81953 8.125 2.53906V0.507812C8.125 0.227348 7.8976 0 7.61719 0H2.53906C2.25865 0 2.03125 0.227348 2.03125 0.507812V2.53906C2.03125 2.81953 2.25865 3.04688 2.53906 3.04688H3.55469V4.0625H0.507812C0.227398 4.0625 0 4.28985 0 4.57031C0 4.57031 0 19.3333 0 19.3982C0 19.8748 0.457082 19.9062 0.8125 19.9062V24.9844C0.8125 24.9844 0.509285 24.9844 0.507812 24.9844C-0.132793 24.9844 -0.152699 26 0.507812 26C0.507812 26 4.14664 26 4.16401 26C4.81574 26 4.82412 24.9844 4.16406 24.9844H3.85938V19.9062H4.74277L8.25571 23.8011C8.35204 23.9078 8.48905 23.9688 8.63281 23.9688H18.7426C19.3953 25.1771 20.6736 26 22.1406 26C24.2687 26 26 24.2687 26 22.1406C26 20.6736 25.1771 19.3953 23.9688 18.7426ZM3.04688 2.03125V1.01562H7.10938V2.03125H3.04688ZM5.58594 3.04688V4.0625H4.57031V3.04688H5.58594ZM2.84375 24.9844H1.82812V19.9062H2.84375V24.9844ZM8.85864 22.9531L6.11046 19.9062H8.42243L10.3049 21.7888C10.4002 21.884 10.5293 21.9375 10.664 21.9375H18.2866C18.2831 22.0048 18.2812 22.0725 18.2812 22.1406C18.2812 22.4194 18.3116 22.691 18.368 22.9531H8.85864ZM18.4796 20.9219H13.9424L10.7631 17.2656H13.6134C13.8932 17.2656 14.1212 17.0376 14.1212 16.7578C14.1212 16.478 13.8932 16.25 13.6134 16.25C13.6134 16.25 9.6589 16.25 9.64844 16.25C9.21974 16.25 8.98473 16.768 9.26504 17.0909L12.5963 20.9219H10.8744L8.99189 19.0394C8.89662 18.9441 8.76748 18.8906 8.63281 18.8906H1.01562V5.07812H16.3516C19.9917 5.07812 22.9531 8.03959 22.9531 11.6797V16.25C22.9531 16.25 17.685 16.25 17.6759 16.25C17.0519 16.25 17.0088 17.2656 17.6759 17.2656H22.9531V18.368C22.691 18.3116 22.4194 18.2812 22.1406 18.2812C20.4384 18.2812 18.9911 19.3894 18.4796 20.9219ZM22.1406 24.9844C20.5726 24.9844 19.2969 23.7086 19.2969 22.1406C19.2969 20.5726 20.5726 19.2969 22.1406 19.2969C23.7087 19.2969 24.9844 20.5726 24.9844 22.1406C24.9844 23.7086 23.7087 24.9844 22.1406 24.9844Z" fill="black"/>
<path d="M22.1406 20.6172C21.3006 20.6172 20.6172 21.3006 20.6172 22.1406C20.6172 22.9806 21.3006 23.6641 22.1406 23.6641C22.9806 23.6641 23.6641 22.9806 23.6641 22.1406C23.6641 21.3006 22.9806 20.6172 22.1406 20.6172ZM22.1406 22.6484C21.8606 22.6484 21.6328 22.4206 21.6328 22.1406C21.6328 21.8606 21.8606 21.6328 22.1406 21.6328C22.4206 21.6328 22.6484 21.8606 22.6484 22.1406C22.6484 22.4206 22.4206 22.6484 22.1406 22.6484Z" fill="black"/>
<path d="M15.6445 16.25C15.3647 16.25 15.1367 16.478 15.1367 16.7578C15.1367 17.0376 15.3647 17.2656 15.6445 17.2656C15.9248 17.2656 16.1523 17.0376 16.1523 16.7578C16.1523 16.478 15.9248 16.25 15.6445 16.25Z" fill="black"/>
</g>
<defs>
<clipPath id="clip0_164_337">
<rect width="26" height="26" fill="white"/>
</clipPath>
</defs>
</svg>
