<svg width="25" height="25" viewBox="0 0 27 27" fill="none" xmlns="http://www.w3.org/2000/svg">
<path d="M14.8827 9.51091C14.8827 8.91027 14.3958 8.42334 13.7951 8.42334C13.1944 8.42334 12.7075 8.91027 12.7075 9.51091C12.7075 10.1116 13.1944 10.5985 13.7951 10.5985C14.3958 10.5985 14.8827 10.1116 14.8827 9.51091Z" fill="#27395A"/>
<path d="M13.7952 20.1147C14.2456 20.1147 14.6108 19.7495 14.6108 19.299V12.7736C14.6108 12.3232 14.2456 11.9579 13.7952 11.9579C13.3447 11.9579 12.9795 12.3232 12.9795 12.7736V19.299C12.9795 19.7495 13.3447 20.1147 13.7952 20.1147Z" fill="#27395A"/>
<path fill-rule="evenodd" clip-rule="evenodd" d="M13.8573 2.1698H13.7325C11.222 2.16979 9.25449 2.16978 7.71941 2.37617C6.14815 2.58742 4.9083 3.02825 3.93513 4.00142C2.96197 4.97459 2.52113 6.21444 2.30988 7.78569C2.10349 9.32077 2.1035 11.2882 2.10352 13.7987V13.9236C2.1035 16.4341 2.10349 18.4015 2.30988 19.9366C2.52113 21.5079 2.96197 22.7478 3.93513 23.721C4.9083 24.6941 6.14815 25.1349 7.71941 25.3462C9.25449 25.5525 11.2219 25.5525 13.7325 25.5525H13.8573C16.3678 25.5525 18.3353 25.5525 19.8704 25.3462C21.4416 25.1349 22.6815 24.6941 23.6547 23.721C24.6278 22.7478 25.0686 21.5079 25.2799 19.9366C25.4862 18.4015 25.4862 16.4341 25.4862 13.9236V13.7987C25.4862 11.2882 25.4862 9.32077 25.2799 7.78569C25.0686 6.21444 24.6278 4.97459 23.6547 4.00142C22.6815 3.02825 21.4416 2.58742 19.8704 2.37617C18.3353 2.16978 16.3678 2.16979 13.8573 2.1698ZM5.08867 5.15496C5.70821 4.53541 6.54642 4.1799 7.93678 3.99297C9.3506 3.80288 11.2084 3.80115 13.7949 3.80115C16.3813 3.80115 18.2391 3.80288 19.653 3.99297C21.0433 4.1799 21.8815 4.53541 22.5011 5.15496C23.1207 5.77449 23.4762 6.6127 23.663 8.00306C23.8532 9.41688 23.8549 11.2747 23.8549 13.8612C23.8549 16.4476 23.8532 18.3054 23.663 19.7192C23.4762 21.1096 23.1207 21.9478 22.5011 22.5674C21.8815 23.187 21.0433 23.5425 19.653 23.7293C18.2391 23.9194 16.3813 23.9212 13.7949 23.9212C11.2084 23.9212 9.3506 23.9194 7.93678 23.7293C6.54642 23.5425 5.70821 23.187 5.08867 22.5674C4.46913 21.9478 4.11361 21.1096 3.92668 19.7192C3.7366 18.3054 3.73487 16.4476 3.73487 13.8612C3.73487 11.2747 3.7366 9.41688 3.92668 8.00306C4.11361 6.6127 4.46913 5.77449 5.08867 5.15496Z" fill="#27395A"/>
</svg>
