<svg width="61" height="67" viewBox="0 0 61 67" fill="none" xmlns="http://www.w3.org/2000/svg">
<path d="M46.7358 14.9891L31.9774 23.5374C31.3833 23.8824 30.6358 23.8824 30.0224 23.5374L15.2641 14.9891C14.2099 14.3757 13.9416 12.9382 14.7466 12.0374C15.3024 11.4049 15.9349 10.8874 16.6058 10.5232L26.9941 4.77324C29.2174 3.52741 32.8208 3.52741 35.0441 4.77324L45.4324 10.5232C46.1033 10.8874 46.7358 11.4241 47.2916 12.0374C48.0583 12.9382 47.7899 14.3757 46.7358 14.9891Z" fill="#5932EA"/>
<path d="M29.9087 27.1014V40.173C29.9087 41.6297 28.4329 42.588 27.1296 41.9555C23.1812 40.0197 16.5304 36.3972 16.5304 36.3972C14.1921 35.0747 12.2754 31.7397 12.2754 28.9989V19.1089C12.2754 17.5947 13.8662 16.6364 15.1696 17.3839L28.9504 25.3764C29.5254 25.7405 29.9087 26.3922 29.9087 27.1014Z" fill="#5932EA"/>
<path d="M32.0928 27.1014V40.173C32.0928 41.6297 33.5686 42.588 34.8719 41.9555C38.8203 40.0197 45.4711 36.3972 45.4711 36.3972C47.8094 35.0747 49.7261 31.7397 49.7261 28.9989V19.1089C49.7261 17.5947 48.1353 16.6364 46.8319 17.3839L33.0511 25.3764C32.4761 25.7405 32.0928 26.3922 32.0928 27.1014Z" fill="#5932EA"/>
<path d="M1.76 56.952H0.384V55.16H1.76V52.76H3.856V55.16H5.776V56.952H3.856V59.992C3.856 60.1733 3.872 60.344 3.904 60.504C3.94667 60.6533 4.02133 60.7813 4.128 60.888C4.27733 61.0587 4.49067 61.144 4.768 61.144C4.94933 61.144 5.09333 61.128 5.2 61.096C5.30667 61.0533 5.408 61 5.504 60.936L6.096 62.776C5.85067 62.8933 5.584 62.9787 5.296 63.032C5.01867 63.096 4.70933 63.128 4.368 63.128C3.97333 63.128 3.616 63.0693 3.296 62.952C2.98667 62.824 2.72533 62.6533 2.512 62.44C2.01067 61.96 1.76 61.2773 1.76 60.392V56.952ZM7.47787 55.16H9.44587V56.248H9.57387C9.66987 56.056 9.79788 55.88 9.95788 55.72C10.1179 55.56 10.2939 55.4213 10.4859 55.304C10.6885 55.1867 10.9019 55.096 11.1259 55.032C11.3605 54.968 11.5899 54.936 11.8139 54.936C12.0912 54.936 12.3259 54.9627 12.5179 55.016C12.7205 55.0693 12.8912 55.1387 13.0299 55.224L12.4699 57.128C12.3419 57.064 12.1979 57.016 12.0379 56.984C11.8885 56.9413 11.7019 56.92 11.4779 56.92C11.1899 56.92 10.9285 56.9787 10.6939 57.096C10.4592 57.2027 10.2565 57.3573 10.0859 57.56C9.92588 57.7627 9.79788 58.0027 9.70187 58.28C9.61654 58.5467 9.57387 58.84 9.57387 59.16V63H7.47787V55.16ZM18.673 62.168H18.545C18.2997 62.4667 18.001 62.7227 17.649 62.936C17.3077 63.1493 16.865 63.256 16.321 63.256C15.9157 63.256 15.5317 63.1867 15.169 63.048C14.817 62.92 14.5077 62.7387 14.241 62.504C13.9743 62.2693 13.7663 61.9867 13.617 61.656C13.4677 61.3253 13.393 60.9627 13.393 60.568C13.393 60.1627 13.473 59.8 13.633 59.48C13.793 59.1493 14.017 58.8667 14.305 58.632C14.593 58.3973 14.929 58.2213 15.313 58.104C15.7077 57.976 16.1343 57.912 16.593 57.912C17.105 57.912 17.5263 57.9547 17.857 58.04C18.1877 58.1147 18.4597 58.1947 18.673 58.28V58.04C18.673 57.624 18.5077 57.2827 18.177 57.016C17.8463 56.7387 17.4357 56.6 16.945 56.6C16.2197 56.6 15.6063 56.904 15.105 57.512L13.585 56.472C14.417 55.4267 15.553 54.904 16.993 54.904C18.209 54.904 19.137 55.192 19.777 55.768C20.417 56.3333 20.737 57.176 20.737 58.296V63H18.673V62.168ZM18.673 59.816C18.4277 59.6987 18.1717 59.608 17.905 59.544C17.649 59.4693 17.3663 59.432 17.057 59.432C16.5557 59.432 16.1663 59.544 15.889 59.768C15.6223 59.9813 15.489 60.248 15.489 60.568C15.489 60.888 15.617 61.144 15.873 61.336C16.1397 61.528 16.4437 61.624 16.785 61.624C17.0623 61.624 17.3183 61.576 17.553 61.48C17.7877 61.3733 17.985 61.24 18.145 61.08C18.3157 60.9093 18.4437 60.7173 18.529 60.504C18.625 60.28 18.673 60.0507 18.673 59.816ZM29.9254 61C29.584 61.6613 29.104 62.2053 28.4854 62.632C27.8774 63.048 27.1147 63.256 26.1974 63.256C25.5894 63.256 25.0294 63.1547 24.5174 62.952C24.016 62.7387 23.5787 62.4453 23.2054 62.072C22.8427 61.6987 22.5547 61.2613 22.3414 60.76C22.1387 60.248 22.0374 59.688 22.0374 59.08C22.0374 58.472 22.1387 57.912 22.3414 57.4C22.5547 56.888 22.8427 56.4507 23.2054 56.088C23.5787 55.7147 24.016 55.4267 24.5174 55.224C25.0294 55.0107 25.5894 54.904 26.1974 54.904C27.104 54.904 27.8667 55.112 28.4854 55.528C29.104 55.944 29.5574 56.4827 29.8454 57.144L27.9254 57.944C27.744 57.5813 27.5094 57.3093 27.2214 57.128C26.944 56.936 26.592 56.84 26.1654 56.84C25.888 56.84 25.6267 56.8933 25.3814 57C25.136 57.1067 24.9174 57.256 24.7254 57.448C24.544 57.64 24.4 57.8747 24.2934 58.152C24.1867 58.4293 24.1334 58.7387 24.1334 59.08C24.1334 59.4213 24.1867 59.7307 24.2934 60.008C24.4 60.2853 24.544 60.52 24.7254 60.712C24.9174 60.904 25.136 61.0533 25.3814 61.16C25.6267 61.2667 25.888 61.32 26.1654 61.32C26.6027 61.32 26.9707 61.224 27.2694 61.032C27.5787 60.8293 27.824 60.5413 28.0054 60.168L29.9254 61ZM31.3641 51.544H33.4601V57.784H33.5561L36.1801 55.16H38.7721V55.288L35.8601 58.12L39.0121 62.872V63H36.5321L34.3881 59.56L33.4601 60.472V63H31.3641V51.544ZM41.9125 52.456C41.9125 52.744 41.8112 52.9893 41.6085 53.192C41.4058 53.3947 41.1605 53.496 40.8725 53.496C40.5845 53.496 40.3392 53.3947 40.1365 53.192C39.9338 52.9893 39.8325 52.744 39.8325 52.456C39.8325 52.168 39.9338 51.9227 40.1365 51.72C40.3392 51.5173 40.5845 51.416 40.8725 51.416C41.1605 51.416 41.4058 51.5173 41.6085 51.72C41.8112 51.9227 41.9125 52.168 41.9125 52.456ZM41.6085 55.16V63H40.1365V55.16H41.6085ZM43.6841 55.16H45.0921V56.248H45.1561C45.3801 55.864 45.7215 55.544 46.1801 55.288C46.6495 55.032 47.1348 54.904 47.6361 54.904C48.5961 54.904 49.3321 55.1813 49.8441 55.736C50.3668 56.28 50.6281 57.0587 50.6281 58.072V63H49.1561V58.168C49.1241 56.888 48.4788 56.248 47.2201 56.248C46.6335 56.248 46.1428 56.488 45.7481 56.968C45.3535 57.4373 45.1561 58.0027 45.1561 58.664V63H43.6841V55.16ZM55.9579 61.912C56.6832 61.912 57.2752 61.6507 57.7339 61.128C58.2139 60.6053 58.4539 59.9227 58.4539 59.08C58.4539 58.2587 58.2139 57.5813 57.7339 57.048C57.2645 56.5147 56.6725 56.248 55.9579 56.248C55.2539 56.248 54.6619 56.5147 54.1819 57.048C53.7019 57.5813 53.4619 58.2587 53.4619 59.08C53.4619 59.912 53.7019 60.5893 54.1819 61.112C54.6619 61.6453 55.2539 61.912 55.9579 61.912ZM55.9099 66.712C55.4725 66.712 55.0619 66.6533 54.6779 66.536C54.2939 66.4293 53.9419 66.2747 53.6219 66.072C53.3125 65.8693 53.0459 65.6293 52.8219 65.352C52.5979 65.0747 52.4272 64.7653 52.3099 64.424L53.7019 63.848C53.8619 64.3067 54.1392 64.6747 54.5339 64.952C54.9285 65.2293 55.3872 65.368 55.9099 65.368C56.7099 65.368 57.3339 65.128 57.7819 64.648C58.2299 64.168 58.4539 63.5067 58.4539 62.664V61.912H58.3899C58.1125 62.328 57.7339 62.6587 57.2539 62.904C56.7845 63.1387 56.2725 63.256 55.7179 63.256C54.6939 63.256 53.8139 62.856 53.0779 62.056C52.3525 61.2347 51.9899 60.2427 51.9899 59.08C51.9899 57.9173 52.3525 56.9307 53.0779 56.12C53.8139 55.3093 54.6939 54.904 55.7179 54.904C56.2725 54.904 56.7845 55.0267 57.2539 55.272C57.7339 55.5067 58.1125 55.832 58.3899 56.248H58.4539V55.16H59.8619V62.664C59.8619 63.9227 59.5045 64.9093 58.7899 65.624C58.0645 66.3493 57.1045 66.712 55.9099 66.712Z" fill="black"/>
</svg>
