<svg width="27" height="27" viewBox="0 0 23 30" fill="none" xmlns="http://www.w3.org/2000/svg">
<path d="M8.5 22H8C4 22 2 21 2 16V11C2 7 4 5 8 5H16C20 5 22 7 22 11V16C22 20 20 22 16 22H15.5C15.19 22 14.89 22.15 14.7 22.4L13.2 24.4C12.54 25.28 11.46 25.28 10.8 24.4L9.3 22.4C9.14 22.18 8.77 22 8.5 22Z" stroke="#5932EA" stroke-width="1.5" stroke-miterlimit="10" stroke-linecap="round" stroke-linejoin="round"/>
<path d="M7 11H17" stroke="#5932EA" stroke-width="1.5" stroke-linecap="round" stroke-linejoin="round"/>
<path d="M7 16H13" stroke="#5932EA" stroke-width="1.5" stroke-linecap="round" stroke-linejoin="round"/>
</svg>
