<svg width="25" height="25" viewBox="0 0 27 27" fill="none" xmlns="http://www.w3.org/2000/svg">
<path d="M5.21226 3.89425C6.27891 3.49936 7.48873 3.75268 8.30755 4.57129C9.45309 5.71683 9.45309 7.57466 8.3075 8.72025C7.16165 9.8661 5.30407 9.8661 4.15823 8.72025C3.33618 7.8982 3.08446 6.6817 3.48613 5.61217C3.58751 5.34226 3.45088 5.0413 3.18097 4.93992C2.91106 4.83855 2.6101 4.97518 2.50872 5.24509C1.96434 6.69467 2.30562 8.34418 3.41996 9.45852C4.97355 11.0121 7.49218 11.0121 9.04576 9.45852C10.5991 7.90519 10.5991 5.3863 9.04576 3.83297C7.9359 2.7234 6.29545 2.37992 4.84977 2.91513C4.5794 3.01523 4.44134 3.31556 4.54144 3.58593C4.64154 3.8563 4.94189 3.99435 5.21226 3.89425Z" fill="#27395A"/>
<path d="M4.54211 3.84268L5.88999 5.19031C6.00039 5.30078 6.00039 5.48041 5.88997 5.59083L5.17819 6.30261C5.06754 6.41326 4.88829 6.41326 4.77764 6.30261L3.43703 4.96225C3.23313 4.7584 2.9026 4.75843 2.69876 4.96232C2.49492 5.16622 2.49494 5.49675 2.69884 5.70059L4.03943 7.0409C4.55779 7.55926 5.39809 7.55926 5.91648 7.04087L6.62826 6.32909C7.14636 5.81098 7.14636 4.97056 6.62841 4.45217L5.28033 3.10434C5.07643 2.9005 4.74591 2.90052 4.54206 3.10442C4.33822 3.30831 4.33822 3.63884 4.54211 3.84268ZM21.7481 23.8918C20.6814 24.2867 19.4716 24.0334 18.6528 23.2148C17.5073 22.0693 17.5073 20.2114 18.6529 19.0658C19.7987 17.92 21.6563 17.92 22.8021 19.0658C23.6242 19.8879 23.8759 21.1044 23.4742 22.1739C23.3728 22.4438 23.5095 22.7448 23.7794 22.8462C24.0493 22.9475 24.3503 22.8109 24.4516 22.541C24.996 21.0914 24.6547 19.4419 23.5404 18.3276C21.9868 16.774 19.4682 16.774 17.9146 18.3276C16.3613 19.8809 16.3613 22.3998 17.9146 23.9531C19.0245 25.0627 20.6649 25.4062 22.1106 24.871C22.381 24.7709 22.519 24.4705 22.4189 24.2002C22.3188 23.9298 22.0185 23.7917 21.7481 23.8918H21.7481Z" fill="#27395A"/>
<path d="M22.418 23.9434L21.0704 22.5958C20.9598 22.4851 20.9598 22.3058 21.0702 22.1954L21.782 21.4834C21.8926 21.3728 22.0718 21.3728 22.1825 21.4834L23.5231 22.8238C23.727 23.0277 24.0575 23.0276 24.2613 22.8237C24.4652 22.6198 24.4652 22.2893 24.2613 22.0855L22.9207 20.7452C22.4023 20.2268 21.562 20.2268 21.0436 20.7452L20.332 21.457C19.8137 21.975 19.8137 22.8156 20.3321 23.3341L21.6797 24.6817C21.8836 24.8856 22.2141 24.8856 22.418 24.6817C22.6218 24.4778 22.6218 24.1473 22.418 23.9434L22.418 23.9434ZM17.6197 19.649L7.64654 9.67587C7.44267 9.472 7.11214 9.472 6.90827 9.67587C6.7044 9.87974 6.7044 10.2103 6.90827 10.4141L16.8814 20.3873C17.0853 20.5912 17.4158 20.5912 17.6197 20.3873C17.8236 20.1834 17.8236 19.8529 17.6197 19.649ZM9.19018 7.95102L19.3957 18.1565C19.5995 18.3604 19.9301 18.3604 20.1339 18.1565C20.3378 17.9526 20.3378 17.6221 20.1339 17.4182L9.92844 7.21275C9.72457 7.00889 9.39405 7.00889 9.19018 7.21275C8.98631 7.41662 8.98631 7.74715 9.19018 7.95102ZM15.7135 10.8191L20.2184 6.31426C20.4222 6.11039 20.4222 5.77986 20.2184 5.576C20.0145 5.37213 19.684 5.37213 19.4801 5.576L14.9752 10.0809C14.7713 10.2847 14.7713 10.6153 14.9752 10.8191C15.1791 11.023 15.5096 11.023 15.7135 10.8191ZM21.1783 6.99785L16.5252 11.6058C16.3203 11.8087 16.3187 12.1392 16.5216 12.3441C16.7245 12.549 17.055 12.5506 17.2599 12.3477L21.913 7.73971C22.1179 7.53683 22.1195 7.2063 21.9166 7.00144C21.7137 6.79658 21.3832 6.79497 21.1783 6.99785Z" fill="#27395A"/>
<path d="M24.5341 4.17205C24.6034 4.24131 24.6518 4.32866 24.6737 4.42411C24.6957 4.51956 24.6904 4.61926 24.6583 4.71183L23.9395 6.79004C23.9137 6.86475 23.8712 6.93262 23.8153 6.98852C23.7594 7.04442 23.6915 7.0869 23.6168 7.11275L21.5383 7.83184C21.4458 7.86387 21.346 7.86921 21.2506 7.84724C21.1551 7.82527 21.0678 7.77688 20.9985 7.7076L19.6394 6.34823C19.5701 6.27897 19.5218 6.19163 19.4998 6.09618C19.4778 6.00074 19.4832 5.90104 19.5152 5.80848L20.234 3.73026C20.2599 3.65556 20.3023 3.5877 20.3582 3.5318C20.4141 3.4759 20.482 3.43343 20.5567 3.40759L22.6349 2.68849C22.7275 2.65646 22.8272 2.65112 22.9226 2.67308C23.0181 2.69505 23.1055 2.74343 23.1747 2.8127L24.5341 4.17208L24.5341 4.17205ZM22.6675 3.78201L21.1378 4.3113L20.6087 5.84106L21.5058 6.73833L23.0357 6.209L23.5649 4.6793L22.6676 3.78201H22.6675ZM11.9321 17.663L5.74914 23.846C5.55804 24.0371 5.32851 24.0618 5.24612 23.9795L3.34608 22.0794C3.26393 21.9972 3.28863 21.7678 3.47985 21.5765L9.65067 15.4059C9.85454 15.202 9.85454 14.8715 9.6507 14.6676C9.44686 14.4638 9.1163 14.4638 8.91244 14.6676L2.74149 20.8383C2.17357 21.4066 2.07867 22.2881 2.60769 22.8175L4.50804 24.7179C5.03767 25.247 5.91954 25.1521 6.48743 24.5842L12.6704 18.4013C12.8743 18.1974 12.8743 17.8669 12.6704 17.663C12.4665 17.4591 12.136 17.4591 11.9321 17.663L11.9321 17.663Z" fill="#27395A"/>
</svg>
