<svg width="25" height="25" viewBox="0 0 25 25" fill="none" xmlns="http://www.w3.org/2000/svg">
<g clip-path="url(#clip0_1_279)">
<path d="M5.25 8C2.36475 8 0 10.3575 0 13.235C0 14.35 0.356 15.3863 0.95875 16.238L4.6095 22.549C5.12075 23.217 5.46075 23.0903 5.886 22.514L9.9125 15.6615C9.99375 15.514 10.0575 15.3575 10.1133 15.1975C10.3688 14.5748 10.5001 13.9081 10.5 13.235C10.5 10.3575 8.136 8 5.25 8ZM5.25 10.453C6.804 10.453 8.04 11.6858 8.04 13.2353C8.04 14.7848 6.804 16.017 5.25 16.017C3.69625 16.017 2.46 14.7845 2.46 13.2353C2.46 11.6858 3.69625 10.453 5.25 10.453Z" fill="#27395A"/>
<path d="M21.9375 0C20.2545 0 18.875 1.37525 18.875 3.054C18.875 3.70425 19.0825 4.30875 19.4342 4.8055L21.564 8.487C21.8622 8.8765 22.0605 8.8025 22.3085 8.4665L24.6572 4.469C24.7047 4.38325 24.742 4.292 24.7743 4.1985C24.9234 3.83535 25 3.44656 25 3.054C25 1.375 23.621 0 21.9375 0ZM21.9375 1.431C22.844 1.431 23.565 2.15 23.565 3.054C23.565 3.95775 22.844 4.6765 21.9375 4.6765C21.0312 4.6765 20.31 3.95775 20.31 3.054C20.31 2.15 21.0312 1.431 21.9375 1.431Z" fill="#27395A"/>
<path fill-rule="evenodd" clip-rule="evenodd" d="M22.0524 9.35303C21.4906 9.36553 20.9274 9.38928 20.3631 9.43103L20.4501 10.814C20.9921 10.7748 21.5351 10.7495 22.0784 10.7383L22.0524 9.35303ZM19.0586 9.55803C18.1911 9.66578 17.3161 9.81928 16.4511 10.066L16.7769 11.4063C17.5629 11.1823 18.3774 11.0375 19.2046 10.9348L19.0586 9.55803ZM15.1559 10.53C14.8967 10.6444 14.6458 10.7767 14.4049 10.9258L14.4039 10.927L14.4024 10.9275C14.0586 11.144 13.6964 11.4188 13.4006 11.818C13.1864 12.1073 13.0111 12.473 12.9701 12.9055L14.2439 13.0468C14.2534 12.9453 14.3054 12.8113 14.3989 12.6853H14.3994V12.6848C14.5501 12.4808 14.7761 12.2955 15.0449 12.126L15.0459 12.1255C15.2374 12.0073 15.4369 11.9024 15.6429 11.8115L15.1559 10.53ZM14.5001 13.6638L13.6744 14.7225C13.8701 14.9015 14.0754 15.039 14.2736 15.154L14.2761 15.1553L14.2786 15.1568C14.9366 15.531 15.6151 15.7423 16.2441 15.9428L16.6056 14.6133C15.9769 14.4128 15.3841 14.2193 14.8761 13.9308C14.7306 13.8463 14.6031 13.758 14.5001 13.6638ZM17.8339 14.9873L17.4809 16.319L17.6479 16.371L17.8529 16.4365C18.5314 16.6573 19.1814 16.893 19.7624 17.2193L20.3519 15.9893C19.6494 15.5945 18.9201 15.3365 18.2174 15.108L18.2154 15.1075L18.0049 15.0403L17.8339 14.9873ZM21.5506 16.9123L20.6449 17.8923C20.8589 18.124 21.0191 18.4028 21.0971 18.6908L21.0976 18.6923L21.0981 18.6945C21.1911 19.0308 21.1914 19.4263 21.1186 19.8258L22.3746 20.0938C22.4771 19.5298 22.4936 18.9105 22.3251 18.2993C22.1784 17.7588 21.8984 17.2893 21.5506 16.9123ZM20.6801 20.6608C20.5417 20.807 20.3888 20.9386 20.2236 21.0538H20.2231C19.7731 21.3703 19.2511 21.6088 18.6966 21.8138L19.1101 23.1248C19.7166 22.9005 20.3394 22.6255 20.9214 22.216L20.9229 22.2148L20.9236 22.2143C21.1626 22.0469 21.3837 21.8553 21.5834 21.6425L20.6801 20.6608ZM17.5201 22.183C16.7169 22.399 15.8959 22.5635 15.0649 22.703L15.2609 24.0728C16.1161 23.929 16.9749 23.7573 17.8284 23.5278L17.5201 22.183ZM13.8146 22.892C12.9781 23.0063 12.1371 23.0995 11.2936 23.179L11.4041 24.5595C12.2606 24.479 13.1186 24.3843 13.9754 24.267L13.8146 22.892ZM10.0259 23.2878C9.18062 23.3548 8.33337 23.4093 7.48537 23.4553L7.54937 24.8393C8.40562 24.793 9.26262 24.7378 10.1194 24.6698L10.0259 23.2878ZM6.21112 23.5178C5.70287 23.5415 5.19337 23.561 4.68262 23.579L4.72462 24.9643C5.23856 24.9466 5.7524 24.9261 6.26612 24.9028L6.21112 23.5178Z" fill="#27395A"/>
</g>
<defs>
<clipPath id="clip0_1_279">
<rect width="25" height="25" fill="white"/>
</clipPath>
</defs>
</svg>
