<svg width="16" height="16" viewBox="0 0 17 17" fill="none" xmlns="http://www.w3.org/2000/svg">
<g clip-path="url(#clip0_89_570)">
<path d="M14.7248 14.1227L11.7341 11.1267L14.7248 14.1227ZM13.3914 7.12272C13.3914 8.62562 12.7944 10.067 11.7317 11.1297C10.669 12.1924 9.22767 12.7894 7.72477 12.7894C6.22188 12.7894 4.78054 12.1924 3.71783 11.1297C2.65513 10.067 2.05811 8.62562 2.05811 7.12272C2.05811 5.61983 2.65513 4.17849 3.71783 3.11578C4.78054 2.05308 6.22188 1.45605 7.72477 1.45605C9.22767 1.45605 10.669 2.05308 11.7317 3.11578C12.7944 4.17849 13.3914 5.61983 13.3914 7.12272V7.12272Z" stroke="#C4C4C4" stroke-width="2" stroke-linecap="round"/>
</g>
<defs>
<clipPath id="clip0_89_570">
<rect width="16" height="16" fill="white" transform="translate(0.724609 0.122559)"/>
</clipPath>
</defs>
</svg>
