<svg width="50" height="60" viewBox="0 0 50 60" fill="none" xmlns="http://www.w3.org/2000/svg">
<mask id="mask0_89_595" style="mask-type:luminance" maskUnits="userSpaceOnUse" x="0" y="0" width="50" height="60">
<path d="M50 0H0V60H50V0Z" fill="white"/>
</mask>
<g mask="url(#mask0_89_595)">
<path d="M25 0C38.8071 -6.0353e-07 50 11.1929 50 25C50 38.8071 25 60 25 60C25 60 6.0353e-07 38.8071 0 25C-6.0353e-07 11.1929 11.1929 6.0353e-07 25 0Z" fill="#52BD2D"/>
<path d="M7.6499 34.1221H41.6506" stroke="white" stroke-width="1.3" stroke-linecap="round"/>
<path d="M32.71 17.6484L38.4153 26.288" stroke="white" stroke-width="1.3"/>
<path d="M16.4431 17.6353L10.7559 26.2476" stroke="white" stroke-width="1.3"/>
<path d="M37.6553 17.6484L32.1196 26.031" stroke="white" stroke-width="1.3"/>
<path d="M11.5132 17.6357L17.0313 25.9916" stroke="white" stroke-width="1.3"/>
<path d="M30.1596 33.3319C30.1066 33.687 30.3515 34.0178 30.7066 34.0708C31.0616 34.1237 31.3924 33.8788 31.4454 33.5238L30.1596 33.3319ZM33.8985 12.096C33.8993 11.737 33.6089 11.4454 33.2499 11.4446C32.891 11.4438 32.5993 11.7341 32.5985 12.0931L33.8985 12.096ZM37.9209 12.0931C37.9201 11.7341 37.6284 11.4438 37.2694 11.4446C36.9105 11.4454 36.6201 11.737 36.6209 12.096L37.9209 12.0931ZM39.0901 33.5238C39.1431 33.8788 39.4738 34.1237 39.8289 34.0708C40.184 34.0178 40.4288 33.687 40.3759 33.3319L39.0901 33.5238ZM32.607 11.9292C32.607 12.2881 32.898 12.5792 33.257 12.5792C33.616 12.5792 33.907 12.2881 33.907 11.9292H32.607ZM36.6285 11.9292C36.6285 12.2881 36.9195 12.5792 37.2785 12.5792C37.6374 12.5792 37.9285 12.2881 37.9285 11.9292H36.6285ZM31.4454 33.5238C32.4643 26.6952 33.8832 18.9426 33.8985 12.096L32.5985 12.0931C32.5834 18.8162 31.1894 26.4303 30.1596 33.3319L31.4454 33.5238ZM36.6209 12.096C36.6362 18.9429 38.0715 26.6969 39.0901 33.5238L40.3759 33.3319C39.3458 26.4286 37.9359 18.816 37.9209 12.0931L36.6209 12.096ZM33.907 11.9292C33.907 11.4032 34.4286 10.8288 35.2677 10.8288V9.52881C33.8858 9.52881 32.607 10.5218 32.607 11.9292H33.907ZM35.2677 10.8288C36.1068 10.8288 36.6285 11.4032 36.6285 11.9292H37.9285C37.9285 10.5218 36.6496 9.52881 35.2677 9.52881V10.8288Z" fill="white"/>
<path d="M17.7154 33.5082C17.7683 33.8633 18.0991 34.1082 18.4542 34.0552C18.8092 34.0022 19.0541 33.6715 19.0012 33.3164L17.7154 33.5082ZM16.5627 12.0775C16.5619 11.7186 16.2702 11.4282 15.9113 11.429C15.5523 11.4298 15.2619 11.7215 15.2627 12.0805L16.5627 12.0775ZM12.541 12.0805C12.5418 11.7215 12.2515 11.4298 11.8925 11.429C11.5335 11.4282 11.2418 11.7186 11.241 12.0775L12.541 12.0805ZM8.7865 33.3164C8.73354 33.6715 8.97843 34.0022 9.33348 34.0552C9.68854 34.1082 10.0193 33.8633 10.0723 33.5082L8.7865 33.3164ZM15.2542 12.0791C15.2542 12.438 15.5452 12.7291 15.9042 12.7291C16.2632 12.7291 16.5542 12.438 16.5542 12.0791H15.2542ZM11.2334 12.0791C11.2334 12.438 11.5244 12.7291 11.8834 12.7291C12.2424 12.7291 12.5334 12.438 12.5334 12.0791H11.2334ZM19.0012 33.3164C17.9716 26.4148 16.5778 18.8006 16.5627 12.0775L15.2627 12.0805C15.278 18.9271 16.6967 26.6796 17.7154 33.5082L19.0012 33.3164ZM11.241 12.0775C11.226 18.8004 9.81634 26.4131 8.7865 33.3164L10.0723 33.5082C11.0907 26.6813 12.5257 18.9273 12.541 12.0805L11.241 12.0775ZM16.5542 12.0791C16.5542 10.6718 15.2756 9.67871 13.8938 9.67871V10.9787C14.7326 10.9787 15.2542 11.553 15.2542 12.0791H16.5542ZM13.8938 9.67871C12.512 9.67871 11.2334 10.6718 11.2334 12.0791H12.5334C12.5334 11.553 13.055 10.9787 13.8938 10.9787V9.67871Z" fill="white"/>
<path d="M20.7017 23.6523C20.7017 23.1 21.1495 22.6523 21.7017 22.6523H27.442C27.9943 22.6523 28.442 23.1 28.442 23.6523V34.0136H20.7017V23.6523Z" stroke="white" stroke-width="1.3"/>
<path d="M24.7745 30.378L25.7273 28.4781C25.7607 28.4116 25.7123 28.3333 25.6379 28.3333H23.5059C23.4315 28.3333 23.3831 28.2549 23.4165 28.1884L24.3693 26.2886" stroke="white" stroke-width="1.3" stroke-linecap="round"/>
<path d="M27.7922 19.4106H25.4092" stroke="white" stroke-width="1.3" stroke-linecap="round"/>
<path d="M23.9221 19.4106H21.5391" stroke="white" stroke-width="1.3" stroke-linecap="round"/>
<path d="M27.7615 21.0737H25.3784" stroke="white" stroke-width="1.3" stroke-linecap="round"/>
<path d="M23.8914 21.0737H21.5083" stroke="white" stroke-width="1.3" stroke-linecap="round"/>
<path d="M26.5405 18.4243V22.1063" stroke="white" stroke-width="1.3" stroke-linecap="round"/>
<path d="M22.6704 18.4243V22.1063" stroke="white" stroke-width="1.3" stroke-linecap="round"/>
<path d="M16.4619 13.5601L22.68 18.3901" stroke="white" stroke-width="1.3" stroke-linecap="round"/>
<path d="M32.8199 13.5552L26.6006 18.3905" stroke="white" stroke-width="1.3" stroke-linecap="round"/>
</g>
</svg>
