<svg width="50" height="60" viewBox="0 0 68 82" fill="none" xmlns="http://www.w3.org/2000/svg">
<g clip-path="url(#clip0_87_240)">
<mask id="mask0_87_240" style="mask-type:luminance" maskUnits="userSpaceOnUse" x="0" y="0" width="68" height="82">
<path d="M67.2917 0H0V81.1458H67.2917V0Z" fill="white"/>
</mask>
<g mask="url(#mask0_87_240)">
<path d="M33.6458 0C52.2279 -8.16232e-07 67.2917 15.1376 67.2917 33.8108C67.2917 52.4839 33.6458 81.1458 33.6458 81.1458C33.6458 81.1458 8.12251e-07 52.4839 0 33.8108C-8.12251e-07 15.1376 15.0638 8.16233e-07 33.6458 0Z" fill="#ED0000"/>
<path d="M10.2954 46.1479H56.0546" stroke="white" stroke-width="1.3" stroke-linecap="round"/>
<path d="M44.0225 23.8687L51.7008 35.5531" stroke="white" stroke-width="1.3"/>
<path d="M22.1296 23.8506L14.4756 35.4981" stroke="white" stroke-width="1.3"/>
<path d="M50.6782 23.8687L43.228 35.2055" stroke="white" stroke-width="1.3"/>
<path d="M15.4951 23.8506L22.9216 35.1514" stroke="white" stroke-width="1.3"/>
<path d="M40.5898 45.0792C40.5185 45.5595 40.848 46.0068 41.326 46.0785C41.8037 46.1501 42.2489 45.8189 42.3203 45.3387L40.5898 45.0792ZM45.6217 16.3591C45.6228 15.8736 45.232 15.4792 44.7488 15.4782C44.2657 15.4771 43.8732 15.8697 43.8721 16.3552L45.6217 16.3591ZM51.0352 16.3552C51.0341 15.8697 50.6415 15.4771 50.1584 15.4782C49.6752 15.4792 49.2845 15.8736 49.2856 16.3591L51.0352 16.3552ZM52.6087 45.3387C52.6801 45.8189 53.1251 46.1501 53.603 46.0785C54.0808 46.0068 54.4104 45.5595 54.3391 45.0792L52.6087 45.3387ZM43.8836 16.1335C43.8836 16.6189 44.2752 17.0126 44.7584 17.0126C45.2415 17.0126 45.6332 16.6189 45.6332 16.1335H43.8836ZM49.2957 16.1335C49.2957 16.6189 49.6875 17.0126 50.1705 17.0126C50.6537 17.0126 51.0453 16.6189 51.0453 16.1335H49.2957ZM42.3203 45.3387C43.6914 36.1035 45.601 25.6187 45.6217 16.3591L43.8721 16.3552C43.8518 25.4477 41.9757 35.7453 40.5898 45.0792L42.3203 45.3387ZM49.2856 16.3591C49.3062 25.6191 51.2377 36.1058 52.6087 45.3387L54.3391 45.0792C52.9529 35.743 51.0554 25.4475 51.0352 16.3552L49.2856 16.3591ZM45.6332 16.1335C45.6332 15.4222 46.3351 14.6453 47.4644 14.6453V12.8872C45.6046 12.8872 43.8836 14.2301 43.8836 16.1335H45.6332ZM47.4644 14.6453C48.5937 14.6453 49.2957 15.4222 49.2957 16.1335H51.0453C51.0453 14.2301 49.3242 12.8872 47.4644 12.8872V14.6453Z" fill="white"/>
<path d="M23.8419 45.3175C23.9131 45.7978 24.3583 46.129 24.8362 46.0573C25.314 45.9856 25.6436 45.5384 25.5723 45.0581L23.8419 45.3175ZM22.2906 16.334C22.2895 15.8486 21.8969 15.4559 21.4138 15.4569C20.9308 15.458 20.5399 15.8525 20.541 16.3381L22.2906 16.334ZM16.8781 16.3381C16.8791 15.8525 16.4884 15.458 16.0053 15.4569C15.5221 15.4559 15.1295 15.8486 15.1285 16.334L16.8781 16.3381ZM11.8251 45.0581C11.7538 45.5384 12.0834 45.9856 12.5613 46.0573C13.0391 46.129 13.4843 45.7978 13.5556 45.3175L11.8251 45.0581ZM20.5296 16.3362C20.5296 16.8216 20.9212 17.2152 21.4044 17.2152C21.8874 17.2152 22.2792 16.8216 22.2792 16.3362H20.5296ZM15.1182 16.3362C15.1182 16.8216 15.5099 17.2152 15.993 17.2152C16.4762 17.2152 16.8678 16.8216 16.8678 16.3362H15.1182ZM25.5723 45.0581C24.1866 35.7242 22.3108 25.4265 22.2906 16.334L20.541 16.3381C20.5616 25.5976 22.4709 36.0823 23.8419 45.3175L25.5723 45.0581ZM15.1285 16.334C15.1083 25.4263 13.2111 35.7219 11.8251 45.0581L13.5556 45.3175C14.9262 36.0846 16.8575 25.5979 16.8781 16.3381L15.1285 16.334ZM22.2792 16.3362C22.2792 14.4329 20.5584 13.0898 18.6987 13.0898V14.8479C19.8276 14.8479 20.5296 15.6247 20.5296 16.3362H22.2792ZM18.6987 13.0898C16.839 13.0898 15.1182 14.4329 15.1182 16.3362H16.8678C16.8678 15.6247 17.5698 14.8479 18.6987 14.8479V13.0898Z" fill="white"/>
<path d="M27.8613 31.9882C27.8613 31.2412 28.4639 30.6357 29.2072 30.6357H36.9325C37.6758 30.6357 38.2783 31.2412 38.2783 31.9882V46.0011H27.8613V31.9882Z" stroke="white" stroke-width="1.3"/>
<path d="M33.3426 41.0839L34.6249 38.5144C34.6698 38.4244 34.6048 38.3185 34.5047 38.3185H31.6352C31.5351 38.3185 31.4701 38.2125 31.5149 38.1226L32.7972 35.5532" stroke="white" stroke-width="1.3" stroke-linecap="round"/>
<path d="M37.4039 26.2515H34.1968" stroke="white" stroke-width="1.3" stroke-linecap="round"/>
<path d="M32.1954 26.2515H28.9883" stroke="white" stroke-width="1.3" stroke-linecap="round"/>
<path d="M37.3625 28.5005H34.1553" stroke="white" stroke-width="1.3" stroke-linecap="round"/>
<path d="M32.154 28.5005H28.9468" stroke="white" stroke-width="1.3" stroke-linecap="round"/>
<path d="M35.7192 24.9175V29.8971" stroke="white" stroke-width="1.3" stroke-linecap="round"/>
<path d="M30.5107 24.9175V29.8971" stroke="white" stroke-width="1.3" stroke-linecap="round"/>
<path d="M22.1548 18.3389L30.5233 24.8711" stroke="white" stroke-width="1.3" stroke-linecap="round"/>
<path d="M44.1704 18.3325L35.8003 24.8719" stroke="white" stroke-width="1.3" stroke-linecap="round"/>
</g>
</g>
<defs>
<clipPath id="clip0_87_240">
<rect width="67.2917" height="81.1458" fill="white"/>
</clipPath>
</defs>
</svg>
