<svg width="34" height="41" viewBox="0 0 34 41" fill="none" xmlns="http://www.w3.org/2000/svg">
<g clip-path="url(#clip0_87_483)">
<mask id="mask0_87_483" style="mask-type:luminance" maskUnits="userSpaceOnUse" x="0" y="0" width="34" height="41">
<path d="M34 0H0V41H34V0Z" fill="white"/>
</mask>
<g mask="url(#mask0_87_483)">
<path d="M17 0C26.3888 -4.12412e-07 34 7.64848 34 17.0833C34 26.5182 17 41 17 41C17 41 4.104e-07 26.5182 0 17.0833C-4.104e-07 7.64848 7.61117 4.12412e-07 17 0Z" fill="#ED0000"/>
<path d="M5.20215 23.3167H28.3226" stroke="white" stroke-width="1.3" stroke-linecap="round"/>
<path d="M22.2432 12.0598L26.1228 17.9635" stroke="white" stroke-width="1.3"/>
<path d="M11.1808 12.0508L7.31348 17.9359" stroke="white" stroke-width="1.3"/>
<path d="M25.6061 12.0598L21.8418 17.7879" stroke="white" stroke-width="1.3"/>
<path d="M7.8291 12.051L11.5814 17.7609" stroke="white" stroke-width="1.3"/>
<path d="M20.5088 22.7769C20.4728 23.0196 20.6393 23.2456 20.8808 23.2818C21.1222 23.318 21.3471 23.1506 21.3832 22.908L20.5088 22.7769ZM23.0513 8.26571C23.0518 8.02039 22.8543 7.82113 22.6102 7.82058C22.3661 7.82004 22.1678 8.01841 22.1673 8.26373L23.0513 8.26571ZM25.7865 8.26373C25.7859 8.01841 25.5876 7.82004 25.3435 7.82058C25.0994 7.82113 24.9019 8.02039 24.9025 8.26571L25.7865 8.26373ZM26.5815 22.908C26.6176 23.1506 26.8425 23.318 27.0839 23.2818C27.3253 23.2456 27.4919 23.0196 27.4558 22.7769L26.5815 22.908ZM22.173 8.15173C22.173 8.39698 22.3709 8.59589 22.615 8.59589C22.8592 8.59589 23.057 8.39698 23.057 8.15173H22.173ZM24.9076 8.15173C24.9076 8.39698 25.1055 8.59589 25.3496 8.59589C25.5937 8.59589 25.7916 8.39698 25.7916 8.15173H24.9076ZM21.3832 22.908C22.0759 18.2418 23.0408 12.9442 23.0513 8.26571L22.1673 8.26373C22.157 12.8578 21.2091 18.0608 20.5088 22.7769L21.3832 22.908ZM24.9025 8.26571C24.9129 12.9444 25.8888 18.243 26.5815 22.908L27.4558 22.7769C26.7554 18.0597 25.7967 12.8577 25.7865 8.26373L24.9025 8.26571ZM23.057 8.15173C23.057 7.79229 23.4117 7.39979 23.9823 7.39979V6.51147C23.0426 6.51147 22.173 7.19 22.173 8.15173H23.057ZM23.9823 7.39979C24.5529 7.39979 24.9076 7.79229 24.9076 8.15173H25.7916C25.7916 7.19 24.922 6.51147 23.9823 6.51147V7.39979Z" fill="white"/>
<path d="M12.0463 22.8972C12.0822 23.1399 12.3072 23.3072 12.5487 23.271C12.7901 23.2348 12.9566 23.0088 12.9206 22.7662L12.0463 22.8972ZM11.2624 8.25292C11.2619 8.00767 11.0635 7.80923 10.8194 7.80978C10.5754 7.81033 10.3779 8.00966 10.3784 8.25497L11.2624 8.25292ZM8.52768 8.25497C8.52823 8.00966 8.33082 7.81033 8.0867 7.80978C7.84258 7.80923 7.64423 8.00767 7.64368 8.25292L8.52768 8.25497ZM5.97462 22.7662C5.9386 23.0088 6.10513 23.2348 6.34657 23.271C6.588 23.3072 6.81293 23.1399 6.84897 22.8972L5.97462 22.7662ZM10.3727 8.25402C10.3727 8.49926 10.5705 8.69818 10.8147 8.69818C11.0587 8.69818 11.2567 8.49926 11.2567 8.25402H10.3727ZM7.63852 8.25402C7.63852 8.49926 7.8364 8.69818 8.08052 8.69818C8.32464 8.69818 8.52252 8.49926 8.52252 8.25402H7.63852ZM12.9206 22.7662C12.2204 18.0501 11.2726 12.847 11.2624 8.25292L10.3784 8.25497C10.3888 12.9335 11.3536 18.231 12.0463 22.8972L12.9206 22.7662ZM7.64368 8.25292C7.63348 12.8469 6.67491 18.0489 5.97462 22.7662L6.84897 22.8972C7.54148 18.2322 8.51728 12.9336 8.52768 8.25497L7.64368 8.25292ZM11.2567 8.25402C11.2567 7.29236 10.3872 6.61377 9.44759 6.61377V7.50208C10.018 7.50208 10.3727 7.89451 10.3727 8.25402H11.2567ZM9.44759 6.61377C8.50796 6.61377 7.63852 7.29236 7.63852 8.25402H8.52252C8.52252 7.89451 8.8772 7.50208 9.44759 7.50208V6.61377Z" fill="white"/>
<path d="M14.0771 16.1626C14.0771 15.7852 14.3816 15.4792 14.7571 15.4792H18.6605C19.036 15.4792 19.3405 15.7852 19.3405 16.1626V23.2428H14.0771V16.1626Z" stroke="white" stroke-width="1.3"/>
<path d="M16.8467 20.7583L17.4947 19.46C17.5174 19.4146 17.4845 19.3611 17.4339 19.3611H15.9841C15.9335 19.3611 15.9007 19.3075 15.9233 19.2621L16.5712 17.9639" stroke="white" stroke-width="1.3" stroke-linecap="round"/>
<path d="M18.8988 13.2639H17.2783" stroke="white" stroke-width="1.3" stroke-linecap="round"/>
<path d="M16.2669 13.2639H14.6465" stroke="white" stroke-width="1.3" stroke-linecap="round"/>
<path d="M18.8773 14.4004H17.2568" stroke="white" stroke-width="1.3" stroke-linecap="round"/>
<path d="M16.2465 14.4004H14.626" stroke="white" stroke-width="1.3" stroke-linecap="round"/>
<path d="M18.0479 12.5898V15.1059" stroke="white" stroke-width="1.3" stroke-linecap="round"/>
<path d="M15.416 12.5898V15.1059" stroke="white" stroke-width="1.3" stroke-linecap="round"/>
<path d="M11.1943 9.26611L15.4226 12.5666" stroke="white" stroke-width="1.3" stroke-linecap="round"/>
<path d="M22.318 9.2627L18.0889 12.5668" stroke="white" stroke-width="1.3" stroke-linecap="round"/>
</g>
</g>
<defs>
<clipPath id="clip0_87_483">
<rect width="34" height="41" fill="white"/>
</clipPath>
</defs>
</svg>
