<svg width="50" height="60" viewBox="0 0 68 82" fill="none" xmlns="http://www.w3.org/2000/svg">
<g clip-path="url(#clip0_87_263)">
<mask id="mask0_87_263" style="mask-type:luminance" maskUnits="userSpaceOnUse" x="0" y="0" width="68" height="82">
<path d="M67.2917 0H0V81.1458H67.2917V0Z" fill="white"/>
</mask>
<g mask="url(#mask0_87_263)">
<path d="M33.6458 0C52.2279 -8.16232e-07 67.2917 15.1376 67.2917 33.8108C67.2917 52.4839 33.6458 81.1458 33.6458 81.1458C33.6458 81.1458 8.12251e-07 52.4839 0 33.8108C-8.12251e-07 15.1376 15.0638 8.16233e-07 33.6458 0Z" fill="#2A3FFE"/>
<path d="M10.2959 46.1477H56.0551" stroke="white" stroke-width="1.3" stroke-linecap="round"/>
<path d="M44.0225 23.8684L51.7008 35.5529" stroke="white" stroke-width="1.3"/>
<path d="M22.1296 23.8506L14.4756 35.4981" stroke="white" stroke-width="1.3"/>
<path d="M50.6777 23.8684L43.2275 35.2053" stroke="white" stroke-width="1.3"/>
<path d="M15.4951 23.8508L22.9216 35.1516" stroke="white" stroke-width="1.3"/>
<path d="M40.5898 45.079C40.5185 45.5592 40.848 46.0066 41.326 46.0783C41.8037 46.1498 42.2489 45.8186 42.3203 45.3385L40.5898 45.079ZM45.6217 16.3589C45.6228 15.8734 45.232 15.479 44.7488 15.4779C44.2658 15.4768 43.8732 15.8694 43.8721 16.355L45.6217 16.3589ZM51.0352 16.355C51.0341 15.8694 50.6415 15.4768 50.1584 15.4779C49.6754 15.479 49.2845 15.8734 49.2856 16.3589L51.0352 16.355ZM52.6087 45.3385C52.6801 45.8186 53.1251 46.1498 53.603 46.0783C54.081 46.0066 54.4104 45.5592 54.3392 45.079L52.6087 45.3385ZM43.8836 16.1333C43.8836 16.6187 44.2752 17.0124 44.7584 17.0124C45.2415 17.0124 45.6332 16.6187 45.6332 16.1333H43.8836ZM49.2958 16.1333C49.2958 16.6187 49.6875 17.0124 50.1706 17.0124C50.6537 17.0124 51.0454 16.6187 51.0454 16.1333H49.2958ZM42.3203 45.3385C43.6915 36.1033 45.6011 25.6184 45.6217 16.3589L43.8721 16.355C43.8518 25.4475 41.9757 35.745 40.5898 45.079L42.3203 45.3385ZM49.2856 16.3589C49.3062 25.6188 51.2379 36.1056 52.6087 45.3385L54.3392 45.079C52.9529 35.7427 51.0554 25.4472 51.0352 16.355L49.2856 16.3589ZM45.6332 16.1333C45.6332 15.4219 46.3351 14.6451 47.4644 14.6451V12.887C45.6046 12.887 43.8836 14.2299 43.8836 16.1333H45.6332ZM47.4644 14.6451C48.5937 14.6451 49.2958 15.4219 49.2958 16.1333H51.0454C51.0454 14.2299 49.3242 12.887 47.4644 12.887V14.6451Z" fill="white"/>
<path d="M23.8419 45.3175C23.9131 45.7978 24.3583 46.129 24.8362 46.0573C25.314 45.9856 25.6436 45.5384 25.5724 45.0581L23.8419 45.3175ZM22.2906 16.334C22.2895 15.8486 21.8969 15.4559 21.4139 15.4569C20.9307 15.458 20.5399 15.8525 20.541 16.3381L22.2906 16.334ZM16.878 16.3381C16.8791 15.8525 16.4884 15.458 16.0053 15.4569C15.5221 15.4559 15.1295 15.8486 15.1285 16.334L16.878 16.3381ZM11.8251 45.0581C11.7538 45.5384 12.0834 45.9856 12.5613 46.0573C13.0391 46.129 13.4842 45.7978 13.5556 45.3175L11.8251 45.0581ZM20.5296 16.3362C20.5296 16.8216 20.9212 17.2152 21.4043 17.2152C21.8875 17.2152 22.2791 16.8216 22.2791 16.3362H20.5296ZM15.1182 16.3362C15.1182 16.8216 15.5099 17.2152 15.993 17.2152C16.4762 17.2152 16.8678 16.8216 16.8678 16.3362H15.1182ZM25.5724 45.0581C24.1867 35.7242 22.3109 25.4265 22.2906 16.334L20.541 16.3381C20.5616 25.5976 22.4709 36.0823 23.8419 45.3175L25.5724 45.0581ZM15.1285 16.334C15.1083 25.4263 13.2111 35.7219 11.8251 45.0581L13.5556 45.3175C14.9262 36.0846 16.8574 25.5979 16.878 16.3381L15.1285 16.334ZM22.2791 16.3362C22.2791 14.4329 20.5584 13.0898 18.6987 13.0898V14.8479C19.8276 14.8479 20.5296 15.6247 20.5296 16.3362H22.2791ZM18.6987 13.0898C16.839 13.0898 15.1182 14.4329 15.1182 16.3362H16.8678C16.8678 15.6247 17.5698 14.8479 18.6987 14.8479V13.0898Z" fill="white"/>
<path d="M27.8613 31.9884C27.8613 31.2415 28.464 30.636 29.2072 30.636H36.9326C37.676 30.636 38.2785 31.2415 38.2785 31.9884V46.0014H27.8613V31.9884Z" stroke="white" stroke-width="1.3"/>
<path d="M33.3431 41.0841L34.6254 38.5146C34.6704 38.4247 34.6052 38.3188 34.5051 38.3188H31.6358C31.5356 38.3188 31.4705 38.2128 31.5155 38.1228L32.7978 35.5535" stroke="white" stroke-width="1.3" stroke-linecap="round"/>
<path d="M37.4034 26.2515H34.1963" stroke="white" stroke-width="1.3" stroke-linecap="round"/>
<path d="M32.1954 26.2515H28.9883" stroke="white" stroke-width="1.3" stroke-linecap="round"/>
<path d="M37.3625 28.5005H34.1553" stroke="white" stroke-width="1.3" stroke-linecap="round"/>
<path d="M32.1535 28.5005H28.9463" stroke="white" stroke-width="1.3" stroke-linecap="round"/>
<path d="M35.7188 24.9175V29.8971" stroke="white" stroke-width="1.3" stroke-linecap="round"/>
<path d="M30.5107 24.9175V29.8971" stroke="white" stroke-width="1.3" stroke-linecap="round"/>
<path d="M22.1543 18.3389L30.5228 24.8711" stroke="white" stroke-width="1.3" stroke-linecap="round"/>
<path d="M44.1699 18.3325L35.7998 24.8719" stroke="white" stroke-width="1.3" stroke-linecap="round"/>
</g>
</g>
<defs>
<clipPath id="clip0_87_263">
<rect width="67.2917" height="81.1458" fill="white"/>
</clipPath>
</defs>
</svg>
