<svg width="60" height="70" viewBox="0 0 63 76" fill="none" xmlns="http://www.w3.org/2000/svg">
<g clip-path="url(#clip0_136_496)">
<mask id="mask0_136_496" style="mask-type:luminance" maskUnits="userSpaceOnUse" x="0" y="0" width="63" height="76">
<path d="M63 0H0V76H63V0Z" fill="white"/>
</mask>
<g mask="url(#mask0_136_496)">
<path d="M31.5 2.5C47.5038 2.5 60.5 15.5459 60.5 31.6667C60.5 35.3645 58.8041 39.8501 55.9282 44.696C53.0863 49.4847 49.2605 54.3483 45.378 58.7347C41.5039 63.1116 37.6222 66.9591 34.705 69.715C33.4178 70.9311 32.3213 71.9319 31.5 72.6688C30.6787 71.9319 29.5822 70.9311 28.295 69.715C25.3778 66.9591 21.4961 63.1116 17.622 58.7347C13.7395 54.3483 9.91374 49.4847 7.07178 44.696C4.1959 39.8501 2.5 35.3645 2.5 31.6667C2.5 15.5459 15.4962 2.5 31.5 2.5Z" fill="#FA5050" stroke="#5932EA" stroke-width="5"/>
<path d="M12 43H50" stroke="white" stroke-width="1.3" stroke-linecap="round"/>
<path d="M40 24L47 34" stroke="white" stroke-width="1.3"/>
<path d="M22 24L15 34" stroke="white" stroke-width="1.3"/>
<path d="M46 24L40 34" stroke="white" stroke-width="1.3"/>
<path d="M16 24L22 34" stroke="white" stroke-width="1.3"/>
<path d="M37.0085 42.149C36.9463 42.5541 37.2335 42.9314 37.6501 42.9918C38.0665 43.0521 38.4545 42.7728 38.5166 42.3679L37.0085 42.149ZM41.394 17.928C41.3949 17.5186 41.0543 17.186 40.6332 17.1851C40.2122 17.1842 39.8701 17.5153 39.8691 17.9247L41.394 17.928ZM46.112 17.9247C46.1111 17.5153 45.7689 17.1842 45.3478 17.1851C44.9269 17.186 44.5862 17.5186 44.5872 17.928L46.112 17.9247ZM47.4834 42.3679C47.5456 42.7728 47.9335 43.0521 48.35 42.9918C48.7665 42.9314 49.0536 42.5541 48.9916 42.149L47.4834 42.3679ZM39.8791 17.7378C39.8791 18.1471 40.2204 18.4792 40.6415 18.4792C41.0626 18.4792 41.4039 18.1471 41.4039 17.7378H39.8791ZM44.5961 17.7378C44.5961 18.1471 44.9374 18.4792 45.3585 18.4792C45.7795 18.4792 46.1209 18.1471 46.1209 17.7378H44.5961ZM38.5166 42.3679C39.7117 34.5794 41.376 25.7371 41.394 17.928L39.8691 17.9247C39.8514 25.5929 38.2164 34.2773 37.0085 42.149L38.5166 42.3679ZM44.5872 17.928C44.6051 25.7374 46.2886 34.5814 47.4834 42.3679L48.9916 42.149C47.7833 34.2754 46.1296 25.5927 46.112 17.9247L44.5872 17.928ZM41.4039 17.7378C41.4039 17.1378 42.0157 16.4827 43 16.4827V15C41.3791 15 39.8791 16.1326 39.8791 17.7378H41.4039ZM43 16.4827C43.9842 16.4827 44.5961 17.1378 44.5961 17.7378H46.1209C46.1209 16.1326 44.6208 15 43 15V16.4827Z" fill="white"/>
<path d="M23.4832 42.3636C23.5452 42.7714 23.9333 43.0526 24.3499 42.9917C24.7663 42.9309 25.0536 42.5511 24.9916 42.1434L23.4832 42.3636ZM22.1309 17.7545C22.13 17.3424 21.7878 17.0089 21.3667 17.0098C20.9456 17.0108 20.6049 17.3457 20.6058 17.758L22.1309 17.7545ZM17.4129 17.758C17.4139 17.3457 17.0733 17.0108 16.6522 17.0098C16.231 17.0089 15.8888 17.3424 15.8879 17.7545L17.4129 17.758ZM13.0084 42.1434C12.9463 42.5511 13.2336 42.9309 13.6501 42.9917C14.0667 43.0526 14.4547 42.7714 14.5168 42.3636L13.0084 42.1434ZM20.5959 17.7564C20.5959 18.1685 20.9372 18.5028 21.3584 18.5028C21.7796 18.5028 22.1209 18.1685 22.1209 17.7564H20.5959ZM15.879 17.7564C15.879 18.1685 16.2203 18.5028 16.6415 18.5028C17.0626 18.5028 17.404 18.1685 17.404 17.7564H15.879ZM24.9916 42.1434C23.7837 34.2182 22.1486 25.4747 22.1309 17.7545L20.6058 17.758C20.6238 25.62 22.2881 34.5223 23.4832 42.3636L24.9916 42.1434ZM15.8879 17.7545C15.8703 25.4745 14.2166 34.2162 13.0084 42.1434L14.5168 42.3636C15.7116 34.5242 17.395 25.6202 17.4129 17.758L15.8879 17.7545ZM22.1209 17.7564C22.1209 16.1403 20.621 15 18.9999 15V16.4928C19.984 16.4928 20.5959 17.1522 20.5959 17.7564H22.1209ZM18.9999 15C17.3789 15 15.879 16.1403 15.879 17.7564H17.404C17.404 17.1522 18.0159 16.4928 18.9999 16.4928V15Z" fill="white"/>
<path d="M27 31.1442C27 30.5123 27.4628 30 28.0336 30H33.9664C34.5373 30 35 30.5123 35 31.1442V43H27V31.1442Z" stroke="white" stroke-width="1.3"/>
<path d="M31.1737 39L31.9908 36.677C32.0194 36.5957 31.9779 36.5 31.9141 36.5H30.0859C30.0221 36.5 29.9806 36.4041 30.0092 36.3228L30.8263 34" stroke="white" stroke-width="1.3" stroke-linecap="round"/>
<path d="M35 26H32" stroke="white" stroke-width="1.3" stroke-linecap="round"/>
<path d="M30 26H27" stroke="white" stroke-width="1.3" stroke-linecap="round"/>
<path d="M35 28H32" stroke="white" stroke-width="1.3" stroke-linecap="round"/>
<path d="M30 28H27" stroke="white" stroke-width="1.3" stroke-linecap="round"/>
<path d="M33 25V29" stroke="white" stroke-width="1.3" stroke-linecap="round"/>
<path d="M29 25V29" stroke="white" stroke-width="1.3" stroke-linecap="round"/>
<path d="M22 20L29 25" stroke="white" stroke-width="1.3" stroke-linecap="round"/>
<path d="M40 20L33 25" stroke="white" stroke-width="1.3" stroke-linecap="round"/>
</g>
</g>
<defs>
<clipPath id="clip0_136_496">
<rect width="63" height="76" fill="white"/>
</clipPath>
</defs>
</svg>
