<svg width="20" height="20" viewBox="0 0 25 25" fill="none" xmlns="http://www.w3.org/2000/svg">
<g clip-path="url(#clip0_1_150)">
<path d="M23.3779 20.8225L13.3187 2.62489C13.2219 2.47891 13.0904 2.35917 12.9361 2.27633C12.7817 2.1935 12.6093 2.15015 12.4341 2.15015C12.2589 2.15015 12.0865 2.1935 11.9321 2.27633C11.7778 2.35917 11.6463 2.47891 11.5495 2.62489L1.43972 20.8225C1.35164 20.975 1.30493 21.1478 1.30421 21.3239C1.30349 21.5 1.34878 21.6733 1.4356 21.8265C1.52243 21.9797 1.64777 22.1076 1.79922 22.1975C1.95066 22.2873 2.12296 22.3361 2.29905 22.3389H22.5186C22.6946 22.3361 22.8669 22.2873 23.0184 22.1975C23.1698 22.1076 23.2952 21.9797 23.382 21.8265C23.4688 21.6733 23.5141 21.5 23.5134 21.3239C23.5127 21.1478 23.466 20.975 23.3779 20.8225ZM14.8351 13.5434L10.488 18.6994C10.4611 18.7463 10.4168 18.7807 10.3646 18.7949C10.3125 18.8091 10.2569 18.802 10.2099 18.7752C10.163 18.7484 10.1287 18.7041 10.1144 18.6519C10.1002 18.5998 10.1073 18.5441 10.1341 18.4972L11.3978 14.7566H9.37588C9.282 14.7566 9.18998 14.7305 9.11013 14.6811C9.03027 14.6318 8.96574 14.5611 8.92376 14.4772C8.88177 14.3932 8.864 14.2992 8.87243 14.2057C8.88086 14.1122 8.91516 14.0229 8.97149 13.9478L13.3187 8.74129C13.4703 8.58965 13.7736 8.79184 13.6725 8.99404L12.4088 12.7346H14.4308C14.5246 12.7346 14.6167 12.7608 14.6965 12.8101C14.7764 12.8595 14.8409 12.9301 14.8829 13.0141C14.9249 13.098 14.9426 13.192 14.9342 13.2855C14.9258 13.379 14.8915 13.4683 14.8351 13.5434Z" fill="black"/>
</g>
<defs>
<clipPath id="clip0_1_150">
<rect width="24.2634" height="24.2634" fill="white" transform="translate(0.276855 0.0974731)"/>
</clipPath>
</defs>
</svg>
