<svg width="29" height="29" viewBox="0 0 29 29" fill="none" xmlns="http://www.w3.org/2000/svg">
<path d="M9.79647 26.9502H5.01062C2.62955 26.9502 1.48047 25.8485 1.48047 23.574V4.85711C1.48047 2.58265 2.64139 1.48096 5.01062 1.48096H9.79647C12.1775 1.48096 13.3266 2.58265 13.3266 4.85711V23.574C13.3266 25.8485 12.1657 26.9502 9.79647 26.9502ZM5.01062 3.25788C3.50616 3.25788 3.25739 3.66065 3.25739 4.85711V23.574C3.25739 24.7705 3.50616 25.1733 5.01062 25.1733H9.79647C11.3009 25.1733 11.5497 24.7705 11.5497 23.574V4.85711C11.5497 3.66065 11.3009 3.25788 9.79647 3.25788H5.01062Z" fill="#292D32"/>
<path d="M23.4185 16.2886H18.6327C16.2516 16.2886 15.1025 15.187 15.1025 12.9125V4.85711C15.1025 2.58265 16.2635 1.48096 18.6327 1.48096H23.4185C25.7996 1.48096 26.9487 2.58265 26.9487 4.85711V12.9125C26.9487 15.187 25.7878 16.2886 23.4185 16.2886ZM18.6327 3.25788C17.1282 3.25788 16.8795 3.66065 16.8795 4.85711V12.9125C16.8795 14.109 17.1282 14.5117 18.6327 14.5117H23.4185C24.923 14.5117 25.1718 14.109 25.1718 12.9125V4.85711C25.1718 3.66065 24.923 3.25788 23.4185 3.25788H18.6327Z" fill="#292D32"/>
<path d="M23.4185 26.9496H18.6327C16.2516 26.9496 15.1025 25.8479 15.1025 23.5734V21.4411C15.1025 19.1666 16.2635 18.0649 18.6327 18.0649H23.4185C25.7996 18.0649 26.9487 19.1666 26.9487 21.4411V23.5734C26.9487 25.8479 25.7878 26.9496 23.4185 26.9496ZM18.6327 19.8419C17.1282 19.8419 16.8795 20.2446 16.8795 21.4411V23.5734C16.8795 24.7699 17.1282 25.1726 18.6327 25.1726H23.4185C24.923 25.1726 25.1718 24.7699 25.1718 23.5734V21.4411C25.1718 20.2446 24.923 19.8419 23.4185 19.8419H18.6327Z" fill="#292D32"/>
</svg>
