<svg width="26" height="26" viewBox="0 0 26 26" fill="none" xmlns="http://www.w3.org/2000/svg">
<g clip-path="url(#clip0_123_551)">
<path d="M12.9996 0C12.7715 0 12.5869 0.18459 12.5869 0.412699V2.0635H13.4123V0.412699C13.4124 0.18459 13.2277 0 12.9996 0Z" fill="#EBC9A0"/>
<path d="M13.4123 0.825195H12.5869V2.06329H13.4123V0.825195Z" fill="#D7B48C"/>
<path d="M13.8256 6.19092H12.1748V8.66711H13.8256V6.19092Z" fill="#DBD9DC"/>
<path d="M13.8256 6.19092H12.1748V7.42902H13.8256V6.19092Z" fill="#C9C6CA"/>
<path d="M13.8255 4.95215H12.1747L11.4986 6.3043C11.43 6.44151 11.5298 6.60295 11.6832 6.60295H14.317C14.4704 6.60295 14.5701 6.44151 14.5015 6.3043L13.8255 4.95215Z" fill="#EDEBED"/>
<path d="M14.238 5.77755L13.8252 4.95215H12.1744L11.7617 5.77755H14.238Z" fill="#DBD9DC"/>
<path d="M13.8255 3.30176H12.1747L11.4986 4.65391C11.43 4.79112 11.5298 4.95255 11.6832 4.95255H14.317C14.4704 4.95255 14.5701 4.79112 14.5015 4.65391L13.8255 3.30176Z" fill="#EDEBED"/>
<path d="M14.238 4.12716L13.8252 3.30176H12.1744L11.7617 4.12716H14.238Z" fill="#DBD9DC"/>
<path d="M13.5704 1.65088H12.4297C12.2734 1.65088 12.1305 1.73919 12.0606 1.87899L11.4986 3.00303C11.43 3.14024 11.5298 3.30168 11.6832 3.30168H14.317C14.4704 3.30168 14.5701 3.14024 14.5015 3.00303L13.9395 1.87899C13.8696 1.73919 13.7267 1.65088 13.5704 1.65088Z" fill="#EDEBED"/>
<path d="M14.238 2.47628L13.9393 1.87899C13.8693 1.73919 13.7264 1.65088 13.5701 1.65088H12.4295C12.2732 1.65088 12.1303 1.73919 12.0604 1.87899L11.7617 2.47623L14.238 2.47628Z" fill="#DBD9DC"/>
<path d="M17.9527 0C17.7246 0 17.54 0.18459 17.54 0.412699V2.0635H18.3654V0.412699C18.3654 0.18459 18.1808 0 17.9527 0Z" fill="#EBC9A0"/>
<path d="M18.3654 0.825195H17.54V2.06329H18.3654V0.825195Z" fill="#D7B48C"/>
<path d="M18.7778 6.19092H17.127V8.66711H18.7778V6.19092Z" fill="#DBD9DC"/>
<path d="M18.7778 6.19092H17.127V7.42902H18.7778V6.19092Z" fill="#C9C6CA"/>
<path d="M18.7777 4.95215H17.1269L16.4508 6.3043C16.3822 6.44151 16.4819 6.60295 16.6353 6.60295H19.2691C19.4225 6.60295 19.5223 6.44151 19.4537 6.3043L18.7777 4.95215Z" fill="#EDEBED"/>
<path d="M19.1901 5.77755L18.7774 4.95215H17.1266L16.7139 5.77755H19.1901Z" fill="#DBD9DC"/>
<path d="M18.7777 3.30176H17.1269L16.4508 4.65391C16.3822 4.79112 16.4819 4.95255 16.6353 4.95255H19.2691C19.4225 4.95255 19.5223 4.79112 19.4537 4.65391L18.7777 3.30176Z" fill="#EDEBED"/>
<path d="M19.1901 4.12716L18.7774 3.30176H17.1266L16.7139 4.12716H19.1901Z" fill="#DBD9DC"/>
<path d="M18.5225 1.65088H17.3819C17.2256 1.65088 17.0827 1.73919 17.0128 1.87899L16.4508 3.00303C16.3822 3.14024 16.4819 3.30168 16.6353 3.30168H19.2691C19.4225 3.30168 19.5223 3.14024 19.4537 3.00303L18.8917 1.87899C18.8217 1.73919 18.6788 1.65088 18.5225 1.65088Z" fill="#EDEBED"/>
<path d="M19.1901 2.47628L18.8914 1.87899C18.8215 1.73919 18.6786 1.65088 18.5223 1.65088H17.3816C17.2253 1.65088 17.0824 1.73919 17.0125 1.87899L16.7139 2.47623L19.1901 2.47628Z" fill="#DBD9DC"/>
<path d="M8.04746 0C7.81936 0 7.63477 0.18459 7.63477 0.412699V2.0635H8.46016V0.412699C8.46016 0.18459 8.27557 0 8.04746 0Z" fill="#EBC9A0"/>
<path d="M8.46016 0.825195H7.63477V2.06329H8.46016V0.825195Z" fill="#D7B48C"/>
<path d="M8.87248 6.19092H7.22168V8.66711H8.87248V6.19092Z" fill="#DBD9DC"/>
<path d="M8.87248 6.19092H7.22168V7.42902H8.87248V6.19092Z" fill="#C9C6CA"/>
<path d="M21.6662 9.90479H4.33301V23.5238H21.6662V9.90479Z" fill="#9C969E"/>
<path d="M10.9362 10.7302H21.6664V9.90479H4.33301V23.5238H5.9838V15.6825C5.9838 12.9474 8.20107 10.7302 10.9362 10.7302Z" fill="#867E88"/>
<path d="M22.0793 9.9047H3.92051C3.69261 9.9047 3.50781 9.71991 3.50781 9.492V8.66661C3.50781 8.4387 3.69261 8.25391 3.92051 8.25391H22.0792C22.3071 8.25391 22.4919 8.4387 22.4919 8.66661V9.492C22.492 9.71991 22.3072 9.9047 22.0793 9.9047Z" fill="#C9C6CA"/>
<path d="M16.9119 21.0474H9.08748C8.81021 21.0474 8.56194 20.904 8.42331 20.6637C8.28468 20.4239 8.28468 20.1374 8.42331 19.8976L12.3359 13.1215C12.4745 12.8813 12.7224 12.7378 12.9997 12.7378C13.2769 12.7378 13.5248 12.8812 13.6634 13.1215L17.576 19.8976C17.7147 20.1374 17.7147 20.4239 17.576 20.6637C17.4374 20.904 17.1891 21.0474 16.9119 21.0474Z" fill="#5D5360"/>
<path d="M9.18945 20.2222H16.8107L13.0001 13.623L9.18945 20.2222Z" fill="#FFDC64"/>
<path d="M8.87336 4.95215H7.22257L6.54647 6.3043C6.47786 6.44151 6.57765 6.60295 6.73101 6.60295H9.36483C9.51824 6.60295 9.61797 6.44151 9.54941 6.3043L8.87336 4.95215Z" fill="#EDEBED"/>
<path d="M8.04746 11.143C7.81936 11.143 7.63477 10.9584 7.63477 10.7303V9.90489C7.63477 9.67678 7.81936 9.49219 8.04746 9.49219C8.27557 9.49219 8.46016 9.67678 8.46016 9.90489V10.7303C8.46016 10.9584 8.27557 11.143 8.04746 11.143Z" fill="#AEA8AF"/>
<path d="M12.9996 11.143C12.7715 11.143 12.5869 10.9584 12.5869 10.7303V9.90489C12.5869 9.67678 12.7715 9.49219 12.9996 9.49219C13.2277 9.49219 13.4123 9.67678 13.4123 9.90489V10.7303C13.4124 10.9584 13.2277 11.143 12.9996 11.143Z" fill="#AEA8AF"/>
<path d="M17.9518 11.143C17.7237 11.143 17.5391 10.9584 17.5391 10.7303V9.90489C17.5391 9.67678 17.7237 9.49219 17.9518 9.49219C18.1799 9.49219 18.3645 9.67678 18.3645 9.90489V10.7303C18.3645 10.9584 18.1799 11.143 17.9518 11.143Z" fill="#AEA8AF"/>
<path d="M13.0002 19.6324C12.9595 19.6324 12.9184 19.6263 12.8777 19.6138C12.66 19.5461 12.5383 19.3144 12.606 19.0971L12.9538 17.9812H12.4859C12.3546 17.9812 12.2312 17.9187 12.1534 17.8131C12.0756 17.7075 12.0531 17.5709 12.0918 17.4455L12.606 15.7947C12.6741 15.5775 12.9047 15.4574 13.1231 15.5235C13.3408 15.5916 13.4621 15.823 13.3944 16.0406L13.047 17.1558H13.5145C13.6458 17.1558 13.7692 17.2182 13.847 17.3239C13.9248 17.4294 13.9473 17.5661 13.9086 17.691L13.3944 19.3426C13.3392 19.5191 13.1763 19.6324 13.0002 19.6324Z" fill="#5D5360"/>
<path d="M5.57131 9.07931C5.34335 9.07931 5.15861 8.89451 5.15861 8.66661V8.25391H3.92051C3.69255 8.25391 3.50781 8.43865 3.50781 8.66661V9.492C3.50781 9.71991 3.69255 9.9047 3.92051 9.9047H22.0792C22.3072 9.9047 22.4919 9.71991 22.4919 9.492V9.07931H5.57131Z" fill="#B7B2B8"/>
<path d="M22.4926 26.0001H3.5084C3.2805 26.0001 3.0957 25.8153 3.0957 25.5874V23.9366C3.0957 23.7087 3.2805 23.5239 3.5084 23.5239H22.4925C22.7204 23.5239 22.9052 23.7087 22.9052 23.9366V25.5874C22.9053 25.8153 22.7205 26.0001 22.4926 26.0001Z" fill="#C9C6CA"/>
<path d="M5.1592 24.762C4.70334 24.762 4.3338 24.3925 4.3338 23.9366V23.5239H3.5084C3.2805 23.5239 3.0957 23.7087 3.0957 23.9366V25.5874C3.0957 25.8153 3.2805 26.0001 3.5084 26.0001H22.4925C22.7204 26.0001 22.9052 25.8153 22.9052 25.5874V24.762H5.1592Z" fill="#B7B2B8"/>
<path d="M9.28577 5.77755L8.87307 4.95215H7.22227L6.80957 5.77755H9.28577Z" fill="#DBD9DC"/>
<path d="M8.87336 3.30176H7.22257L6.54647 4.65391C6.47786 4.79112 6.57765 4.95255 6.73101 4.95255H9.36483C9.51824 4.95255 9.61797 4.79112 9.54941 4.65391L8.87336 3.30176Z" fill="#EDEBED"/>
<path d="M9.28577 4.12716L8.87307 3.30176H7.22227L6.80957 4.12716H9.28577Z" fill="#DBD9DC"/>
<path d="M8.61824 1.65088H7.47759C7.32129 1.65088 7.17839 1.73919 7.10846 1.87899L6.54647 3.00303C6.47786 3.14024 6.57765 3.30168 6.73101 3.30168H9.36483C9.51824 3.30168 9.61797 3.14024 9.54942 3.00303L8.98737 1.87899C8.91749 1.73919 8.7746 1.65088 8.61824 1.65088Z" fill="#EDEBED"/>
<path d="M9.28577 2.47628L8.98712 1.87899C8.9172 1.73919 8.7743 1.65088 8.61799 1.65088H7.47734C7.32104 1.65088 7.17814 1.73919 7.10821 1.87899L6.80957 2.47623L9.28577 2.47628Z" fill="#DBD9DC"/>
</g>
<defs>
<clipPath id="clip0_123_551">
<rect width="26" height="26" fill="white"/>
</clipPath>
</defs>
</svg>
